<svg width="18" height="18" viewBox="0 0 18 18" fill="none" xmlns="http://www.w3.org/2000/svg">
<path d="M3.0723 17.4536H8.70617V11.4902H6.68202V9.52431H8.70617V7.06689C8.70617 5.71186 9.84119 4.60948 11.2363 4.60948H13.7665V6.57541H11.7424C11.1843 6.57541 10.7303 7.01634 10.7303 7.55838V9.52431H13.6752L13.3378 11.4902H10.7303V17.4536H15.2846C16.6798 17.4536 17.8148 16.3512 17.8148 14.9962V3.13503C17.8148 1.77999 16.6798 0.677612 15.2846 0.677612H3.0723C1.67714 0.677612 0.542114 1.77999 0.542114 3.13503V14.9962C0.542114 16.3512 1.67714 17.4536 3.0723 17.4536ZM1.55419 3.13503C1.55419 2.32203 2.23523 1.66058 3.0723 1.66058H15.2846C16.1217 1.66058 16.8027 2.32203 16.8027 3.13503V14.9962C16.8027 15.8092 16.1217 16.4706 15.2846 16.4706H11.7424V12.4732H14.1952L14.8699 8.54134H11.7424V7.55838H14.7786V3.62651H11.2363C9.2831 3.62651 7.69409 5.16982 7.69409 7.06689V8.54134H5.66995V12.4732H7.69409V16.4706H3.0723C2.23523 16.4706 1.55419 15.8092 1.55419 14.9962V3.13503Z" fill="white"/>
</svg>
