<svg width="18" height="17" viewBox="0 0 18 17" fill="none" xmlns="http://www.w3.org/2000/svg">
<path d="M9.17847 0C4.43187 0 0.542114 3.81066 0.542114 8.42074C0.542114 13.0041 4.39642 16.776 9.17847 16.776C13.9546 16.776 17.8148 13.0097 17.8148 8.42074C17.8148 3.81066 13.9251 0 9.17847 0ZM10.6966 15.6455C10.2108 15.7438 9.69465 15.793 9.17847 15.793C8.66228 15.793 8.1461 15.7438 7.66036 15.6455V13.3454C7.66036 12.7949 7.81217 12.5984 8.01458 12.3329C8.11764 12.2185 8.17984 12.1158 8.64199 11.4385L7.86277 11.3205C5.85879 11.0355 5.06943 10.0229 4.75566 9.23656C4.35083 8.18486 4.56339 6.86758 5.29213 6.03219C5.40349 5.90433 5.49455 5.68802 5.41364 5.46199C5.26169 5.0098 5.28199 4.29229 5.38319 4.01698C5.9198 4.09147 6.47157 4.46482 6.93174 4.73462C7.14378 4.8548 7.255 4.82306 7.35674 4.83292C7.72651 4.75817 8.30331 4.57732 9.18861 4.57732C9.73511 4.57732 10.312 4.65591 10.8788 4.81321C10.9802 4.8109 11.143 4.89461 11.4253 4.73462C11.9063 4.44997 12.4394 4.08942 12.9737 4.01698C13.0749 4.29229 13.0952 5.0098 12.9434 5.46199C12.8624 5.68802 12.9534 5.90433 13.0649 6.03219C13.7935 6.86771 14.0061 8.18486 13.6013 9.23656C13.2875 10.0229 12.4981 11.0355 10.4942 11.3205L9.71494 11.4385C10.1926 12.1386 10.243 12.2226 10.3425 12.3329C10.5448 12.5984 10.6966 12.7949 10.6966 13.3454V15.6455ZM11.7086 15.3605V13.3454C11.7086 12.7851 11.5871 12.4116 11.4252 12.1363C12.9636 11.7334 14.0567 10.8486 14.5425 9.58059C15.0586 8.24386 14.8259 6.65141 13.9655 5.55043C14.1175 4.89192 14.1175 3.8401 13.7531 3.34861C13.5911 3.13244 13.3684 3.01443 13.0851 3.01443C13.0749 3.01443 13.0749 3.01443 13.0749 3.01443C12.2902 3.05564 11.6725 3.43949 11.0103 3.83024C10.4031 3.67294 9.78571 3.59435 9.16832 3.59435C8.54091 3.59435 7.91338 3.6828 7.35687 3.83024C6.65975 3.42195 6.04803 3.05462 5.24153 3.01443C4.98851 3.01443 4.7658 3.13244 4.60385 3.34861C4.23961 3.8401 4.23961 4.89192 4.39142 5.55043C3.53102 6.65141 3.2983 8.25359 3.81448 9.58059C4.30022 10.8486 5.39334 11.7334 6.93174 12.1363C6.80616 12.3497 6.7068 12.625 6.66766 12.9976C6.35692 13.1016 6.08743 13.1355 5.83678 13.064C5.57243 12.9881 5.36646 12.8167 5.1875 12.5244C4.78557 11.8686 4.10097 11.3332 3.32149 11.4028L3.41044 12.3819C3.77139 12.3498 4.13062 12.7207 4.31722 13.0265C4.62506 13.53 5.03978 13.8602 5.55016 14.0066C5.92903 14.115 6.27535 14.1125 6.64829 14.0352V15.3605C3.70313 14.3578 1.55419 11.6252 1.55419 8.42074C1.55419 4.35129 4.98851 0.982966 9.17847 0.982966C13.3684 0.982966 16.8027 4.35129 16.8027 8.42074C16.8027 11.6252 14.6538 14.3578 11.7086 15.3605Z" fill="white"/>
</svg>
