<svg width="18" height="15" viewBox="0 0 18 15" fill="none" xmlns="http://www.w3.org/2000/svg">
<path d="M17.8148 2.62973C16.7283 2.67836 16.752 2.67439 16.6292 2.68438L17.2727 0.899553C17.2727 0.899553 15.2641 1.61719 14.7549 1.74557C13.4176 0.578169 11.4298 0.526589 10.0087 1.37491C8.84493 2.06977 8.22029 3.26302 8.42864 4.65773C6.16373 4.35248 4.25542 3.30974 2.74878 1.55192L2.27226 0.996057L1.91619 1.63115C1.46616 2.43364 1.31672 3.35121 1.49528 4.21476C1.56855 4.56904 1.69308 4.90693 1.86558 5.22332L1.4568 5.06948L1.40831 5.73285C1.35915 6.40672 1.59016 7.19335 2.02636 7.83688C2.14917 8.01812 2.30731 8.21714 2.50775 8.41348L2.29651 8.382L2.55427 9.14213C2.89307 10.1408 3.59678 10.9135 4.51002 11.3431C3.59797 11.719 2.86118 11.9588 1.65012 12.3457L0.542114 12.6995L1.56552 13.2429C1.95572 13.4502 3.33454 14.1422 4.69688 14.3498C7.72519 14.8111 11.1347 14.4354 13.4301 12.4276C15.3634 10.7365 15.9978 8.33093 15.8661 5.82756C15.8462 5.44859 15.953 5.08688 16.167 4.80927C16.5957 4.25341 17.8122 2.63344 17.8148 2.62973ZM15.3578 4.22052C15.0024 4.68141 14.8243 5.27004 14.8562 5.87774C14.9892 8.40286 14.2818 10.3611 12.7535 11.6978C10.9683 13.2595 8.08878 13.8724 4.85357 13.3795C4.26767 13.2903 3.66214 13.0905 3.16098 12.891C4.17635 12.5517 4.96044 12.2492 6.22672 11.6671L7.99442 10.8545L6.04276 10.7332C5.10791 10.6751 4.32948 10.235 3.85099 9.5206C4.10506 9.50626 4.35004 9.46633 4.59396 9.40029L6.45536 8.89677L4.57841 8.45034C3.66636 8.2334 3.14649 7.70339 2.87094 7.29689C2.69 7.02978 2.57179 6.75613 2.5009 6.50387C2.68908 6.55289 2.90849 6.58783 3.26232 6.62187L4.99958 6.78877L3.62314 5.74591C2.63136 4.9946 2.23391 3.86586 2.52528 2.78075C5.62053 5.89886 9.25477 5.66451 9.62059 5.74693C9.54007 4.98731 9.53796 4.98552 9.51688 4.9132C9.0484 3.30475 10.0751 2.48804 10.5382 2.21158C11.5054 1.63422 13.0408 1.54718 14.1043 2.49841C14.334 2.7037 14.6446 2.78447 14.9353 2.71433C15.1962 2.65136 15.4104 2.58467 15.62 2.5121L15.1836 3.72264L15.7407 3.72302C15.6356 3.85997 15.5095 4.02392 15.3578 4.22052Z" fill="white"/>
</svg>
